<?xml version="1.0" encoding="utf-8"?>
<!-- Generator: Adobe Illustrator 27.4.1, SVG Export Plug-In . SVG Version: 6.00 Build 0)  -->
<svg version="1.1" id="Layer_1" xmlns="http://www.w3.org/2000/svg" xmlns:xlink="http://www.w3.org/1999/xlink" x="0px" y="0px"
	 viewBox="0 0 337.5 111.7" style="enable-background:new 0 0 337.5 111.7;" xml:space="preserve">
<g id="Layer_2_00000003090327925764824670000008417468157769288856_">
	<g id="Layer_1-2">
		<path d="M57.1,43.7v2.4c0,1-0.2,1.6-0.6,1.9c-0.4,0.3-1.8,0.9-4.2,2.1c-2.4,1.1-4.8,2.5-7,4c0.7-1,1.5-2,2.4-2.8
			c0.7-0.6,1.7-1.4,2.9-2.3c-1.4-0.5-2.9-0.7-4.4-0.6c-3.2,0.1-6.4,0.6-9.5,1.7c-3,1-5.9,2.4-8.6,4.1c-2.4,1.6-3.5,2.9-3.5,4
			c0,0.6,0.4,1,1.1,1.4c1.1,0.5,2.3,0.7,3.5,0.8c1.6,0.2,3.6,0.3,5.9,0.4c2.4,0.1,5.3,0.1,8.8,0.1c1.6-0.1,3.3,0,4.9,0.3
			c0.6,0.1,1.1,0.7,1.1,1.3c-0.3,2.5-2.2,4.5-4.7,5c-2.2,0.4-3.9,0.7-5.2,0.9c-1.6,0.3-3.1,0.7-4.6,1.2c-2,0.7-4,1.5-5.9,2.4
			c-2.7,1.4-5.3,3.1-7.5,5.1c-1.8,1.7-2.7,3.3-2.7,4.6c0,1.2,0.8,2.3,1.9,2.7c1.8,0.7,3.6,1.1,5.5,1c8.3,0,16.8-3.7,25.4-11.2
			c0.1,2-0.2,4.1-0.8,6.1c-0.7,1.9-1.8,3.6-3.4,5c-1.8,1.6-3.9,2.9-6.2,3.8c-2.8,1.3-5.8,2.2-8.9,2.9c-3,0.7-6,1.1-9,1.1
			c-2.9,0.1-5.7-0.7-8.1-2.3c-2-1.4-3.3-3.7-3.2-6.2c0-2,0.6-3.9,1.6-5.6c1.2-2.1,2.8-3.9,4.8-5.3c2.5-1.9,5.2-3.4,8.1-4.6
			c3.6-1.5,7.4-2.6,11.3-3.3c0.6-0.1,0.9-0.3,0.9-0.6c0-0.3-0.4-0.4-1.1-0.5c-0.7-0.1-2-0.1-3.9-0.1c-1.9,0-3.6-0.1-5-0.2
			c-1.6-0.2-3.1-0.5-4.6-0.9C23,63,21.7,62,20.7,60.7c-0.9-1.3-1.4-2.8-1.4-4.3c0.1-2.2,0.8-4.3,2.2-6.1c1.7-2.2,3.8-4.1,6.1-5.5
			c3-1.8,6.2-3.1,9.6-4c4-1,8.2-1.5,12.4-1.5c1.8-0.1,3.6,0.1,5.4,0.4c1,0.3,1.6,0.7,1.8,1.2C57.1,41.8,57.2,42.8,57.1,43.7z"/>
		<path d="M47.8,77.9V77c6-6.4,10.2-10.8,12.5-13.4c0.5-2.9,1.8-4.3,3.8-4.3c0.6,0,1.1,0.2,1.6,0.4l0.2,0.7
			c-0.1,0.4-0.2,0.8-0.1,1.2c0.1,0.8,0.2,1.7,0.5,2.5c0.3,1.2,0.6,2.2,0.8,3c0.2,0.9,0.3,1.8,0.3,2.8c0,1.5-0.4,3.1-1.1,4.4
			c-0.8,1.5-1.8,2.9-3.1,4.1c-1.6,1.5-3.3,2.8-5.2,4c0.7,0.1,1.3,0.2,2,0.2c1.1,0,2.1-0.3,3.1-0.7c1.2-0.5,2.4-1.2,3.4-1.9
			c1.2-0.8,2.5-1.9,4.1-3.2v2.4c-2.5,2.5-5.2,4.7-8,6.7c-1.8,1.3-3.9,2.1-6.1,2.3c-2.3-0.1-4.6-1.1-6.1-2.8c-1-0.9-1.7-2-2.1-3.2
			C47.8,80.7,47.7,79.3,47.8,77.9z M60.9,72.5l-0.6-5.1c-1.5,1.6-4.6,4.8-9.3,9.5c1.1,0.1,2,0.6,2.9,1.2C54.6,79,55.4,80,56,81
			c1.4-0.5,2.7-1.5,3.7-2.7c0.9-1.4,1.4-3,1.3-4.7c0-0.2,0-0.4,0-0.6C60.9,72.9,60.9,72.7,60.9,72.5z"/>
		<path d="M82.7,58.7h1.5c0.9-1.7,2-3.3,3.4-4.7c0.9-0.9,2.1-1.4,3.4-1.4c1.3,0,1.9,0.3,1.9,0.9c-0.3,0.9-0.9,1.6-1.5,2.3
			c-0.8,1-1.6,2-2.3,3.1l2.1,0.2l1.5,0.2c-1.5,2.7-3.1,5.2-5,7.6l-1.7-0.1l-1.3-0.1L83,66.5c-1.3,2-2.3,3.9-3.2,5.5
			c-0.8,1.4-1.5,2.9-2,4.4c-0.4,1.2-0.7,2.5-0.7,3.8c0,1.6,0.6,2.4,1.9,2.4c1.3-0.1,2.5-0.6,3.5-1.4c1.4-0.9,3.4-2.4,5.8-4.4v2.4
			c-6.3,6.9-11,10.3-14,10.3c-1,0-1.9-0.4-2.6-1.2c-0.7-0.9-1-2-1-3.2c0-1.1,0.2-2.1,0.6-3.1c0.4-1.2,1-3,2-5.4
			c-0.3,0.3-0.6,0.6-0.9,0.8l-0.8,0.7l-0.8,0.7l-0.8,0.8v-2.4c2.5-2.1,5.4-5.7,8.9-10.9l-1-0.1h-1.1c-1,0-2.1,0.1-3.1,0.3
			c-0.3,0.1-0.5,0.2-0.8,0.2c-0.2,0.1-0.3,0.1-0.5,0.1c-0.1,0-0.1-0.1-0.1-0.2c0.2-1.3,0.7-2.5,1.4-3.5c0.6-1.1,1.3-2.1,2.2-2.9
			c0.7-0.6,1.6-1.1,2.5-1.3C79.9,58.7,81.3,58.6,82.7,58.7z"/>
		<path d="M94,78.2V79c-0.1,1.2,0.3,2.3,1,3.2c0.7,0.8,1.7,1.2,2.7,1.2c1.2,0,2.4-0.3,3.6-0.8c1.3-0.6,2.5-1.3,3.7-2.1
			c1.2-0.9,2.7-2.1,4.5-3.6V79c-2.2,2.7-4.7,5.2-7.4,7.3c-2,1.6-4.5,2.5-7.1,2.6c-2,0.1-3.8-0.8-5-2.4c-1.3-2-2-4.3-1.8-6.6
			c0-2.3,0.6-4.7,1.7-6.7c1.5-2.4,3.4-4.6,5.6-6.3c1.6-1.4,3.4-2.6,5.3-3.5c1.5-0.7,3.1-1.1,4.7-1.2c0.9,0,1.9,0.2,2.6,0.8
			c0.7,0.5,1.1,1.4,1,2.3c0,1.6-0.6,3.2-1.7,4.4c-1.4,1.7-3.1,3.2-5,4.4C99.7,75.6,96.9,77,94,78.2z M94.3,75.9
			c2-0.7,3.8-1.8,5.4-3.1c1.3-1,2.4-2.2,3.3-3.5c0.6-0.7,0.9-1.6,1.1-2.4c0-0.5-0.2-0.8-0.7-0.8c-0.7,0.1-1.4,0.4-2.1,0.8
			c-1,0.6-2,1.3-2.9,2.1c-1,0.9-1.9,1.9-2.6,3C95.1,73.2,94.6,74.5,94.3,75.9L94.3,75.9z"/>
		<path d="M109,79.6v-2.3c1-1.2,2-2.5,2.9-3.8c-0.6-0.2-1.2-0.5-1.6-0.9c-0.4-0.5-0.6-1.1-0.5-1.7c0.1-1.1,0.4-2.2,1.1-3.2
			c0.7-1.3,1.6-2.5,2.6-3.6c0.8-0.9,1.7-1.7,2.8-2.2c0.3-0.2,0.6-0.2,0.9-0.2c0.5,0,0.7,0.2,0.7,0.7c-0.2,0.9-0.6,1.7-1.1,2.4
			c3-0.5,6.1-0.9,9.1-1.1c0.3,0,0.7,0,1,0.1c0.5,0.4,0.9,0.9,1,1.5c0.3,0.7,0.4,1.5,0.4,2.3c0,0.6-0.3,1.2-0.7,1.6
			c-0.7,0.9-1.4,1.7-2.2,2.5c-1.2,1.3-2.2,2.8-3.1,4.4c-0.7,1.1-1.1,2.3-1.3,3.6c0,1.1,0.7,1.7,2,1.7c1.3,0,3.8-1.5,7.5-4.4v2.4
			c-1.9,2-3.6,3.6-4.8,4.8c-1.1,1-2.3,2-3.5,2.8c-0.8,0.6-1.8,0.9-2.9,1c-1,0-1.9-0.5-2.5-1.3c-0.7-1.2-1.1-2.5-1-3.9
			c0-1.2,0.3-2.4,0.8-3.4c0.6-1.5,1.4-2.9,2.3-4.2c1-1.6,2.2-3.1,3.4-4.5c-0.7,0.1-1.4,0.3-2.2,0.4l-2.6,0.5l-2.1,0.4
			C113.8,74.7,111.6,77.4,109,79.6z"/>
		<path d="M140.4,48.7c0-0.1-0.1-0.2-0.3-0.2c-0.7,0.1-1.3-0.4-1.4-1.1c0-0.1,0-0.2,0-0.4c0.1-1,0.4-1.9,0.9-2.7
			c0.6-1,1.4-1.9,2.2-2.7c0.6-0.6,1.5-1,2.4-1.1c1,0,1.4,0.6,1.4,1.9c-0.1,1.5-0.5,2.9-1.4,4.1c-0.9,1.4-1.9,2.6-3.1,3.8
			c-1.1,1.1-1.9,1.6-2.2,1.6c-0.1,0-0.2-0.1-0.2-0.2c0,0,0,0,0,0c0.1-0.5,0.3-1,0.7-1.4C140,49.8,140.3,49.3,140.4,48.7z"/>
		<path d="M135.3,77.9V77c6-6.4,10.2-10.8,12.5-13.4c0.5-2.9,1.8-4.3,3.7-4.3c0.6,0,1.1,0.2,1.6,0.4l0.2,0.7
			c-0.1,0.4-0.2,0.8-0.1,1.2c0.1,0.8,0.2,1.7,0.5,2.5c0.3,1.2,0.6,2.2,0.8,3c0.2,0.9,0.3,1.8,0.3,2.8c0,1.5-0.4,3.1-1.1,4.4
			c-0.8,1.5-1.8,2.9-3.1,4.1c-1.6,1.5-3.3,2.8-5.2,4c0.7,0.1,1.3,0.2,2,0.2c1.1,0,2.1-0.3,3.1-0.7c1.2-0.5,2.3-1.1,3.4-1.9
			c1.2-0.8,2.5-1.9,4.1-3.2v2.4c-2.5,2.5-5.2,4.7-8.1,6.6c-1.8,1.3-3.9,2.1-6.1,2.3c-2.3-0.1-4.6-1.1-6.1-2.8c-1-0.9-1.7-2-2.1-3.2
			C135.4,80.7,135.3,79.3,135.3,77.9z M148.4,72.5l-0.6-5.1c-1.5,1.6-4.6,4.8-9.3,9.5c1.1,0.1,2,0.6,2.9,1.2c0.8,0.9,1.6,1.9,2.2,3
			c1.4-0.5,2.7-1.5,3.7-2.7c0.9-1.4,1.4-3,1.3-4.7c0-0.2,0-0.4,0-0.6C148.5,72.9,148.4,72.7,148.4,72.5L148.4,72.5z"/>
		<path d="M174.1,57.1c0,0.2,0.2,0.2,0.5,0.2c0.3,0,1.3-0.1,2.9-0.4c1.5-0.3,3.1-0.4,4.6-0.5c-1.4,0.4-2.7,0.8-4,1.3
			c-1.1,0.4-2.3,0.9-3.4,1.4c-1.2,0.5-2,0.9-2.6,1c-0.4,0.2-0.9,0.2-1.3,0.3c-1.2,0-1.8-0.8-1.8-2.3c0-4,1-6.8,3-8.4
			c1.3-0.9,2.6-1.7,4-2.3c2-1,4.1-1.8,6.1-2.6c2.5-0.9,5-1.6,7.5-2.1c2.7-0.6,5.4-0.9,8.1-0.9c2.6,0,5.1,0.4,7.6,1.2
			c2.1,0.7,4.1,1.9,5.7,3.4c1.6,1.5,2.8,3.3,3.6,5.3c0.9,2.2,1.3,4.6,1.2,7c0,4.1-1.2,8.1-3.4,11.5c-2.4,3.8-5.5,7.2-9.1,9.9
			c-3.9,2.9-8.3,5.2-12.9,6.8c-4.5,1.6-9.3,2.5-14.1,2.5c-0.7,0-1.4-0.1-2.1-0.3c-0.5-0.2-0.9-0.6-1-1.1c-0.2-0.8-0.4-1.6-0.3-2.4
			c0-1.1,0.1-2.2,0.3-3.3c0.3-1,0.6-2,1.1-2.9c3.4-7.5,9.2-16.9,17.6-28.2c-1.9,0.2-3.7,0.6-5.6,1.1c-2,0.5-3.9,1.1-5.7,1.7
			c-1.5,0.5-3.1,1.2-4.5,1.8C174.7,56.4,174.1,56.8,174.1,57.1z M192.8,51c0,0,0,0.3,0.1,0.8c0.1,0.4,0.1,0.8,0.1,1.2
			c-0.1,0.8-0.4,1.6-0.8,2.3c-0.6,1-1.6,2.7-3.2,5.2c-1.6,2.5-3,4.7-4.1,6.5c-1.1,1.9-2.5,4.3-4.1,7.2c-0.5,0.9-0.8,1.6-1,1.9
			s-0.5,0.9-0.9,1.6c-0.4,0.6-0.7,1.3-0.9,1.9c-0.2,0.4-0.3,0.8-0.3,1.2c0,0.6,0.4,1.1,1,1.3c0.9,0.3,1.9,0.4,2.9,0.4
			c3.4,0,6.9-0.6,10.1-1.7c3.5-1.2,6.9-2.8,10-4.8c2.9-1.9,5.5-4.2,7.5-7c1.8-2.3,2.8-5.2,2.8-8.2c0.1-2.9-1.2-5.7-3.6-7.5
			c-2.4-1.7-5.8-2.6-10.3-2.6C196.3,50.7,194.5,50.8,192.8,51z"/>
		<path d="M232.9,76.8v2.4c-1.1,1.1-2.4,2-3.7,2.8c-1.3,0.5-2.6,0.7-4,0.6c-3.1,3.6-5.8,5.4-8.1,5.4c-1.3,0-2.6-0.5-3.6-1.3
			c-1.1-1-2-2.2-2.6-3.6c-0.7-1.6-1-3.3-1-5c0.1-1.8,0.6-3.5,1.5-5c1.1-1.9,2.4-3.6,3.9-5.1c1.5-1.5,3.2-2.8,5.1-3.8
			c1.5-0.9,3.2-1.4,5-1.5c0.9,0,1.8,0.1,2.6,0.5c0.6,0.2,0.9,0.8,0.9,1.4c-0.1,0.6-0.4,1.2-0.8,1.6c0.7,0.1,1.3,0.4,1.8,0.9
			c0.4,0.7,0.6,1.5,0.5,2.4c-0.1,1.4-0.3,2.9-0.8,4.2c-0.5,1.7-1.2,3.3-2.2,4.8l0.6,0.6h0.5c0.4,0,0.8-0.1,1.2-0.3
			c0.3-0.2,0.7-0.4,1-0.6L232.9,76.8z M225.6,67.6c-1.9,1.2-3.6,2.2-5,3.2c-1.3,0.8-2.4,1.8-3.5,2.9c-0.9,0.8-1.5,1.8-1.9,2.9
			c-0.6,2.6-0.9,4-0.9,4.2c0,1.5,1.1,2.3,3.2,2.3c1,0,2.7-0.9,5.1-2.6c-0.4-1-0.6-2.1-0.6-3.2c0-1.6,0.3-3.1,0.9-4.5
			C223.6,71,224.6,69.3,225.6,67.6z"/>
		<path d="M241.6,81.7c3.2-2.9,6-5.4,8.3-7.5l5.5-5c1.3-1.2,2.5-2.2,3.5-3.1c0.5-0.6,1.2-1,1.9-1.3c0.5,0,1.1,0.6,1.5,1.7
			c0.4,0.9,0.7,1.8,0.7,2.7c0,0.4-0.7,1.5-2.2,3.2c-1.5,1.7-2.6,3-3.3,4c-0.7,0.9-1.1,2-1.1,3.1c0,0.6,0.2,1.1,0.6,1.5
			c0.4,0.4,1,0.6,1.5,0.6c0.9-0.1,1.8-0.5,2.4-1.1c0.9-0.7,2.4-2,4.5-3.8v2.5c-2,1.9-3.9,3.6-5.5,5c-1.3,1.2-2.8,2.2-4.3,3.1
			c-0.9,0.6-2,0.9-3.1,1c-0.7,0-1.4-0.3-1.8-0.8c-0.5-0.6-0.8-1.3-0.7-2.1c0-0.8,0.1-1.6,0.4-2.4c0.4-1,0.8-2,1.3-2.9
			c0.6-1.1,1.4-2.5,2.3-4.1l2.6-4.3c-2.4,1.9-4.5,3.8-6.4,5.6c-1.8,1.8-3.4,3.4-4.5,4.7l-2.8,3.1c-1.3,1.5-2.6,2.2-3.7,2.2
			c-1.1,0-1.7-0.9-1.8-2.6c0.2-1.3,0.7-2.6,1.4-3.8c0.9-1.8,2.2-4.1,3.9-6.9c0.2-0.3,0.2-0.6,0.2-0.9c0-0.3-0.2-0.7-0.5-0.7
			c-0.1,0-0.1,0-0.2,0c-0.5,0-1.3,0.5-2.2,1.5s-2.9,3-5.6,6.1c-0.9,1.1-1.8,2.2-2.6,3.4c-0.6,1-1.3,1.9-2.1,2.8
			c-0.3,0.4-0.8,0.7-1.3,0.7c-0.8,0-1.6-0.8-2.4-2.2c-0.8-1.6-1.1-3.4-1.1-5.2c0-1.3,0.2-2.6,0.7-3.8c0.7-1.4,1.4-2.7,2.3-3.9
			c1.1-1.7,2.4-3.3,3.8-4.8c0.8-0.9,2-1.4,3.2-1.5c0.6,0,1.2,0.1,1.7,0.4c0.4,0.2,0.7,0.6,0.7,1.1c-0.2,0.9-0.6,1.7-1.3,2.4
			c-1,1.3-2.1,2.4-3.2,3.5c-0.8,0.8-1.4,1.6-2,2.5c-0.5,0.6-0.8,1.4-0.9,2.2c0,0.6,0.2,0.9,0.7,0.9c0.5,0,1.5-0.8,3-2.5
			c1.6-1.6,3.4-3.4,5.3-5.4c1.7-1.7,3.5-3.3,5.4-4.8c1.2-1.1,2.6-1.7,4.2-1.9c0.7,0,1.3,0.3,1.7,0.8c0.5,0.6,0.7,1.3,0.7,2
			c-0.2,1-0.5,1.9-1.1,2.8c-0.9,1.7-2,3.4-3.1,5C245.5,76.5,243.8,78.9,241.6,81.7z"/>
		<path d="M269.4,70.6c3.1-2.9,6.6-5.3,10.4-7.2c3.3-1.6,5.9-2.4,7.8-2.4c0.5,0,1,0.2,1.4,0.6c0.4,0.4,0.8,0.9,1,1.4
			c0.2,0.4,0.3,0.8,0.4,1.2c0,0.4-0.2,0.7-0.5,0.9c-0.5,0.3-1.1,0.5-1.7,0.7l0.6,1.4c0.3,0.6,0.5,1.1,0.6,1.4c0.1,0.3,0.2,0.7,0.2,1
			c0,0.6-0.6,1.6-1.7,3.2s-1.9,2.7-2.4,3.4c-0.5,0.8-0.7,1.7-0.7,2.7c0,1.7,0.8,2.6,2.4,2.6s4.2-1.5,7.7-4.6v2.1
			c-5.9,6.6-10.2,9.9-12.7,9.9c-0.8,0.1-1.5-0.3-2-0.9c-0.4-0.8-0.6-1.7-0.6-2.7c0.2-2.8,0.9-5.5,2-8.1c-3.4,3.8-6,6.5-7.6,8.1
			c-1.7,1.6-3,2.4-4.1,2.4c-0.5,0-1.2-0.4-1.9-1.3c-0.9-1-1.6-2.2-2.1-3.5c-0.6-1.4-0.9-2.9-0.9-4.4c0-0.9,0.1-1.9,0.3-2.8
			c0.3-0.8,0.7-1.6,1.2-2.3C267.4,72.6,268.4,71.6,269.4,70.6z M286.3,66.7c-6.1,2.8-10.4,5.2-13,7.1s-3.9,3.9-3.9,6
			c0,0.6,0.1,1.3,0.4,1.8c0.2,0.4,0.6,0.7,1,0.7c0.5-0.1,0.9-0.2,1.4-0.5c2.5-1.5,4.8-3.4,6.8-5.7C281,73.9,283.4,70.7,286.3,66.7z"
			/>
		<path d="M311.3,76.9v2.6c-1.8,2.5-3.9,4.7-6.3,6.6c-2,1.5-3.7,2.2-5,2.2c-1.9,0-3.6-1.2-4.3-3c-1-2.1-1.4-4.3-1.4-6.6
			c0-0.9,0.1-1.8,0.3-2.6c0.1-0.7,0.4-1.4,0.7-2.1c0.3-0.5,0.7-1.4,1.4-2.5c3.3-5.2,6.4-7.8,9.1-7.8c1.4,0,2.1,0.5,2.1,1.6
			c-0.2,1.3-0.7,2.5-1.4,3.5c-0.7,1.2-1.6,2.4-2.6,3.4c-1.4,1.3-2.7,2.7-4,4.1c-0.6,0.7-0.9,1.7-0.9,2.6c0,0.8,0.3,1.6,1,2.1
			c0.7,0.6,1.6,0.9,2.5,0.8c1.3-0.1,2.6-0.5,3.6-1.2C307.9,79.6,309.7,78.3,311.3,76.9z M308.9,61.2c-0.6,0-1.2-0.3-1.7-0.7
			c-0.5-0.4-0.8-1-0.8-1.7c0.1-1.3,0.6-2.5,1.5-3.5c0.7-1.1,1.8-1.8,3.1-1.9c0.6,0,1.3,0.2,1.8,0.7c0.5,0.5,0.7,1.2,0.7,1.9
			c-0.1,1.3-0.7,2.4-1.5,3.3C311.3,60.4,310.2,61.1,308.9,61.2L308.9,61.2z"/>
		<path d="M334.7,70.5c-4.1,4.6-6.2,7.8-6.2,9.6c0,1,0.4,1.5,1.2,1.5c1-0.1,1.9-0.5,2.6-1.1c1.1-0.7,2.8-2,5.1-3.8v2.4
			c-3.3,3.3-5.9,5.6-7.7,7.1c-1.8,1.5-3.2,2.2-4.4,2.2c-1.9,0-2.9-1.3-2.9-3.8c0-0.8,0.1-1.5,0.4-2.2c0.3-0.8,0.6-1.5,1-2.3
			c0.4-0.8,1-1.9,1.9-3.4s1.8-3.1,2.9-5c-1.9,1.1-3.5,2.4-5,4c-1.2,1.1-2.3,2.3-3.3,3.6c-0.9,1.1-1.9,2.4-2.9,3.8
			c-0.7,1-1.5,1.9-2.3,2.8c-0.4,0.4-0.9,0.7-1.5,0.7c-0.7,0-1.4-0.8-2.1-2.4c-0.7-1.7-1-3.6-1-5.5c0-1,0.1-2,0.4-3
			c0.5-1.1,1.1-2.1,1.7-3.1c1.2-1.9,2.6-3.8,4.1-5.4c0.9-1,2.1-1.6,3.4-1.7c0.6,0,1.2,0.1,1.8,0.4c0.4,0.2,0.7,0.7,0.7,1.2
			c0,0.3-0.1,0.5-0.2,0.7c-0.1,0.2-0.3,0.5-0.5,0.7c-0.2,0.2-0.5,0.6-1.1,1.2c-3.7,4.1-5.5,6.8-5.5,8c0,0.7,0.2,1,0.7,1
			c0.3,0,0.8-0.4,1.6-1.3c0.8-0.9,1.9-2.1,3.2-3.6c1.4-1.6,2.9-3.1,4.5-4.6c1.9-1.7,3.9-3.2,6-4.6c0.9-0.7,2-1.2,3.1-1.3
			c0.4,0,0.7,0.5,1.1,1.5c0.4,1,0.5,2.1,0.5,3.1C336.2,68.7,335.7,69.5,334.7,70.5z"/>
		<path d="M58.3,26.1c-15.9-0.6-32.7,1-43.1,14.5c-1.2,1.5,0.9,3.7,2.1,2.1c10-12.9,25.8-14.2,40.9-13.6
			C60.2,29.2,60.2,26.2,58.3,26.1z"/>
		<path d="M59.2,27.9c-0.6-4.4-1-8.9-1-13.4c-0.1-2.2,0.1-4.4,0.6-6.5c0.8-2.6,0.9-1.1,1.6-2.8c1-2.3,0-4.9-2.8-5.2
			c-4.5-0.5-6.9,5.2-9.4,8c-5.3,5.8-11.5-5.6-18-3.5c-4.7,1.5-4.1,6.1-5.4,9.9c-1.9,5.4-7.1,3.4-11.2,3.2c-3-0.2-6,0-9,0.7
			c-3.4,0.7-5.9,2.7-3.7,6.2c1.3,2.2,3.9,3.5,5.7,5.3c3.1,3.1,5.5,6.9,7.1,11c0.7,1.8,3.6,1,2.9-0.8c-1.6-4.1-3.8-7.9-6.8-11.2
			c-1.2-1.3-5.1-3.5-5.6-5.1c-1.2-3.9,7.4-3.3,9.5-3.2c3.8,0.2,8.3,2.6,11.6-0.4c1-1.1,1.8-2.4,2.2-3.8c0.3-1.2,0.6-2.4,0.8-3.7
			c0.6-2.8,0.2-2.3,3.8-3.5c3.9-1.3,3.2-1.1,6.1,0.8c1,0.7,2,1.3,3.1,1.9c1.4,0.8,3.1,1.1,4.7,1c4.1-0.5,5.3-4.5,7.8-7.2
			c0.4-0.4,3-3.5,3.5-1.5c0,0-0.9,1.1-0.9,1.2c-0.2,1.9-0.8,3.5-0.9,5.6c-0.2,6,0.1,11.9,1,17.8C56.6,30.6,59.5,29.8,59.2,27.9
			L59.2,27.9z"/>
		<path d="M53.4,2.5c-0.6,1.2-1.2,2.4-1.9,3.5c-1.5,2.4-4.3,3.7-7.1,3.3c-2-0.4-3.9-2.2-6-2.7c-3-0.7-8-1-10.2,1.5
			C23.6,13.4,30.2,20,19,19.8c-5.7-0.1-10.8-0.7-16.5,0.3c-0.8,0.2-1.3,1.1-1,1.9c0.1,0.2,0.2,0.5,0.4,0.6c5.3,4.7,9.7,10.2,13,16.3
			c0.4,0.7,1.3,1,2,0.5c11.4-7.7,25-11.7,38.8-11.5c0.8,0,1.5-0.7,1.5-1.5c0-0.1,0-0.2,0-0.4c-1.5-7.5-1.4-15.2,0.2-22.7
			c0.4-1.9-2.5-2.7-2.9-0.8c-1.7,8-1.7,16.3-0.2,24.4l1.5-1.9c-14.3-0.3-28.4,3.8-40.3,11.8l2.1,0.5C14,31.1,9.4,25.4,4,20.6
			l-0.7,2.5c4.1-0.8,8.3-1,12.5-0.6c2.6,0.3,6,1.5,8.6,0.6c4.8-1.7,4-6.6,5.2-10.4c2.8-8.8,12.5,1,17.9,0.7C52,13,54.3,7.3,56,4
			C56.9,2.3,54.3,0.8,53.4,2.5L53.4,2.5z"/>
		<path d="M60,111.5l-3.4-12.9h1.8l2,8.4c0.2,0.9,0.4,1.8,0.5,2.6c0.3-1.4,0.5-2.2,0.6-2.4l2.5-8.7h2l1.8,6.5c0.4,1.5,0.8,3,1,4.6
			c0.2-0.8,0.4-1.7,0.6-2.8l2-8.3h1.7l-3.5,12.9H68l-2.7-9.8c-0.2-0.8-0.4-1.3-0.4-1.5c-0.1,0.6-0.3,1.1-0.4,1.5l-2.7,9.8L60,111.5z
			"/>
		<path d="M78.4,111.5V98.6h9.3v1.5h-7.6v3.9h7.1v1.5h-7.1v4.4H88v1.5L78.4,111.5z"/>
		<path d="M93.9,111.5V98.6h4.8c0.8,0,1.6,0.1,2.4,0.4c0.6,0.2,1.1,0.7,1.4,1.2c0.3,0.5,0.5,1.1,0.5,1.7c0,0.6-0.2,1.1-0.4,1.6
			c-0.3,0.5-0.8,0.9-1.3,1.2c0.7,0.2,1.3,0.6,1.8,1.2c0.4,0.6,0.7,1.3,0.6,2c0,0.6-0.1,1.2-0.4,1.7c-0.2,0.5-0.5,0.9-0.9,1.2
			c-0.4,0.3-0.9,0.5-1.4,0.6c-0.7,0.2-1.4,0.2-2.1,0.2L93.9,111.5z M95.6,104h2.8c0.5,0,1.1,0,1.6-0.2c0.4-0.1,0.7-0.3,1-0.6
			c0.2-0.3,0.3-0.7,0.3-1.1c0-0.4-0.2-0.8-0.4-1.1c-0.2-0.3-0.5-0.6-0.9-0.7c-0.7-0.2-1.3-0.2-2-0.2h-2.5V104z M95.6,110h3.2
			c0.4,0,0.8,0,1.2-0.1c0.4-0.1,0.7-0.2,1-0.3c0.3-0.2,0.5-0.4,0.7-0.7c0.2-0.3,0.3-0.7,0.2-1.1c0-0.4-0.1-0.9-0.4-1.2
			c-0.2-0.4-0.6-0.6-1-0.8c-0.6-0.2-1.3-0.2-1.9-0.2h-3L95.6,110z"/>
		<path d="M126.8,111.5V98.6h4.4c0.8,0,1.5,0,2.3,0.2c0.7,0.1,1.3,0.5,1.9,0.9c0.7,0.6,1.2,1.3,1.5,2.2c0.4,1,0.5,2,0.5,3.1
			c0,0.9-0.1,1.8-0.3,2.6c-0.2,0.7-0.5,1.3-0.9,1.9c-0.3,0.5-0.7,0.9-1.2,1.2c-0.5,0.3-1,0.5-1.5,0.7c-0.7,0.2-1.4,0.2-2.1,0.2
			L126.8,111.5z M128.5,110h2.8c0.7,0,1.3-0.1,2-0.2c0.4-0.1,0.8-0.4,1.2-0.7c0.4-0.5,0.8-1,0.9-1.6c0.2-0.8,0.4-1.6,0.3-2.5
			c0.1-1.1-0.2-2.2-0.7-3.1c-0.4-0.6-0.9-1.2-1.6-1.4c-0.7-0.2-1.5-0.3-2.2-0.3h-2.7V110z"/>
		<path d="M143.4,111.5V98.6h9.3v1.5h-7.6v3.9h7.1v1.5h-7.1v4.4h7.9v1.5L143.4,111.5z"/>
		<path d="M162.7,111.5l-5-12.9h1.9l3.4,9.4c0.3,0.8,0.5,1.5,0.7,2.1c0.2-0.7,0.4-1.4,0.7-2.1l3.5-9.4h1.7l-5,12.9H162.7z"/>
		<path d="M174.6,111.5V98.6h9.4v1.5h-7.6v3.9h7.1v1.5h-7.1v4.4h7.9v1.5L174.6,111.5z"/>
		<path d="M190.1,111.5V98.6h1.7V110h6.4v1.5L190.1,111.5z"/>
		<path d="M203.3,105.2c-0.1-1.8,0.5-3.6,1.7-5c1.2-1.2,2.8-1.9,4.4-1.8c1.1,0,2.2,0.3,3.2,0.8c0.9,0.6,1.7,1.4,2.2,2.4
			c0.5,1.1,0.8,2.3,0.8,3.5c0,1.2-0.2,2.4-0.8,3.5c-0.5,1-1.3,1.8-2.2,2.3c-1,0.5-2,0.8-3.1,0.8c-1.1,0-2.3-0.3-3.2-0.9
			c-0.9-0.6-1.7-1.4-2.2-2.4C203.6,107.4,203.3,106.3,203.3,105.2z M205.1,105.2c-0.1,1.3,0.4,2.7,1.2,3.7c1.7,1.7,4.4,1.8,6.2,0.1
			c0,0,0.1-0.1,0.1-0.1c0.9-1.1,1.3-2.4,1.2-3.8c0-0.9-0.2-1.9-0.5-2.8c-0.3-0.7-0.9-1.4-1.6-1.8c-0.7-0.4-1.5-0.7-2.3-0.7
			c-1.2,0-2.3,0.4-3.1,1.2C205.5,101.9,205.1,103.3,205.1,105.2L205.1,105.2z"/>
		<path d="M221.4,111.5V98.6h4.9c0.7,0,1.3,0,2,0.1c0.6,0.1,1.1,0.3,1.6,0.6c0.4,0.3,0.8,0.7,1,1.2c0.7,1.5,0.4,3.3-0.6,4.5
			c-0.7,0.8-1.9,1.1-3.8,1.1h-3.3v5.2L221.4,111.5z M223.1,104.7h3.3c0.8,0.1,1.7-0.1,2.4-0.6c0.5-0.4,0.7-1.1,0.7-1.7
			c0-0.5-0.1-1-0.4-1.4c-0.3-0.4-0.6-0.6-1.1-0.8c-0.5-0.1-1.1-0.1-1.6-0.1h-3.3V104.7z"/>
		<path d="M237,111.5V98.6h2.6l3,9.1c0.3,0.8,0.5,1.5,0.6,1.9c0.1-0.5,0.4-1.2,0.7-2.1l3.1-9h2.3v12.9h-1.6v-10.7l-3.7,10.8h-1.5
			l-3.7-11v11H237z"/>
		<path d="M255.7,111.5V98.6h9.3v1.5h-7.6v3.9h7.1v1.5h-7.1v4.4h7.9v1.5L255.7,111.5z"/>
		<path d="M271.2,111.5V98.6h1.8l6.8,10.1V98.6h1.6v12.9h-1.8l-6.8-10.1v10.1L271.2,111.5z"/>
		<path d="M291.1,111.5v-11.4h-4.2v-1.5h10.2v1.5h-4.3v11.4L291.1,111.5z"/>
	</g>
</g>
</svg>
